<svg xmlns="http://www.w3.org/2000/svg" viewBox="0 0 1000 220">
    <defs>
        <style>
            .cls-1 {
                fill: #fc5200;
            }
        </style>
    </defs>
    <title>invitationals</title>
    <g id="Black">
        <path class="cls-1"
            d="M165.35,33.77C170,33,175,32.22,178.72,32.65c2,.17,2.33-.86,1.9-1.9-1.3-3.62-4.92-4.66-8.89-4.66-5,0-18.8,2.33-26.31,2.33-1.21,0-1.9.52-1.64,1.64.95,3.36,4.66,5.35,10.27,5.35a27.13,27.13,0,0,0,3.71-.35c-7.59,11.73-16.31,29.25-18.46,36.4a12.32,12.32,0,0,0-.52,3.46,5.84,5.84,0,0,0,1.81,4.74c1.21,1.21,2.24,1.12,2.93-.43,5-11.3,11.22-22.77,15.7-30.88C162.93,41.88,165.43,36.88,165.35,33.77Z" />
        <path class="cls-1"
            d="M271.18,65.17c-.77-.78-1.64-.69-2.41.6-3.19,5.26-7.42,11.3-10.1,11.3-1.38,0-2.24-1.38-2.24-3.36,0-3,2.24-6.82,4.66-10.53,3.54-5.43,5.35-9.4,5.35-12.33s-1.38-5.18-3.88-5.26c-2.76-.09-7.34,2.84-11.22,6.29,0-3.62-1.81-6.72-4.57-6.72s-7.59,3.27-11.3,6.9a12.28,12.28,0,0,0,.26-2.33,8.15,8.15,0,0,0-1.21-4.14c-.86-1.55-2.15-1.64-3.28,0a169.9,169.9,0,0,0-12.49,23.16c-2.72,4.6-6.14,8.67-8.72,8.67-.87,0-1.21-.78-1.21-2.07,0-5.78,7.24-15.18,9.49-19.93,2.24-4.48,1.46-8.28,0-10-1-1.21-2.5-1.13-3.54.6l-1.64,2.67c-.77-2.24-2.67-3.79-5.78-3.79-4.4,0-11.47,4.05-18.37,14a26.56,26.56,0,0,0-3.19,5.89,3.17,3.17,0,0,0-.69.75c-3.54,5.35-9.32,11.73-15.87,11.73-2.59,0-4.14-2.67-4.14-6.46a18.46,18.46,0,0,1,.77-5.09A11.14,11.14,0,0,0,172,67.58c7.59,0,13.37-9,13.37-14.23a6.36,6.36,0,0,0-.86-3.19,15.75,15.75,0,0,0-5.35-4.49,5.65,5.65,0,0,0-3-.69c-5,0-12,4.58-16.48,13.72A21.44,21.44,0,0,0,157,68.62c0,6.9,4.4,12.16,12.42,12.07a22.37,22.37,0,0,0,15.11-6.81c.69,3.94,3.32,6.64,7.66,6.64,3.45,0,7.33-2.67,9.83-5.09.7,3.19,3.2,5.44,7.51,5.44a13.39,13.39,0,0,0,8-3.12A5.92,5.92,0,0,0,219.08,80c1.47,1.3,2.42.78,3-.6,3.37-7.94,7.33-15.78,12.16-21,5.18-5.69,8.54-7.59,9.23-7.59s-1.64,3.28-4,7.16a78.52,78.52,0,0,0-6.39,11.38,21.33,21.33,0,0,0-1.55,6.39,5.85,5.85,0,0,0,1.9,4.74c1.38,1.38,2.58,1.12,3.45-.52,3.62-8,7.76-16.21,14.49-22.94,5.09-5.09,6.9-6,7.59-6s-1.38,2.59-3.28,5.43a119,119,0,0,0-6.21,10.7,13.92,13.92,0,0,0-1.29,5.6c0,4.66,3.19,7.85,9.05,7.85,5.35,0,11.48-4.31,13.89-9.31C272.22,69.39,272.13,66.12,271.18,65.17ZM178.89,49.9c1,.78-.86,4.83-3.36,8.19C173.8,60.42,171,63,169,63a3.51,3.51,0,0,1-1.9-.6C171.21,54.13,177.6,48.87,178.89,49.9Zm14.4,26.83c-.86,0-1.2-1-1.2-2.59,0-2.76,1.46-7.33,4-11.39,4.4-7.07,10.35-12.5,12.08-12.5.86,0,1,.6,1,1.63,0,2.25-1.55,6.47-4.92,12.34C200.11,71.46,196.14,76.73,193.29,76.73Z" />
        <path class="cls-1" d="M61.1,95.29H77.87v90.08H61.1Z" />
        <path class="cls-1" d="M162,95.29v90.08H145.65L106.7,126.32v59.05H90V95.29h16.33l38.51,59.49V95.29Z" />
        <path class="cls-1"
            d="M190.44,95.29,222,184.05l-.82,1.32H204.76l-32-90.08Zm63.5,0L228.25,166.4l-8.79-24.81,16.83-46.3Z" />
        <path class="cls-1" d="M264,95.29h16.77v90.08H264Z" />
        <path class="cls-1" d="M359.35,95.29v16.83H334.73v73.25H317.08V112.12H292.89V95.29Z" />
        <path class="cls-1"
            d="M405.27,95.29l.44,1.26-8.79,22.67-12.19,31H409l-5.84-14.63L412,112.88l28.08,72.49H422l-6.66-18.47H378.45l-7.54,18.47H353.32l34.74-90.08Z" />
        <path class="cls-1" d="M498.12,95.29v16.83H473.49v73.25H455.84V112.12H431.65V95.29Z" />
        <path class="cls-1" d="M505.46,95.29h16.78v90.08H505.46Z" />
        <path class="cls-1"
            d="M579.28,185.37q-19.17,0-32.1-13.19-12.82-13.69-12.82-31.6a44,44,0,0,1,6-22.86,42.94,42.94,0,0,1,16.33-16.4,44.53,44.53,0,0,1,22.56-6q18,0,31.15,13.19a44,44,0,0,1,13.32,32.1q0,19.1-12.88,32A43.34,43.34,0,0,1,579.28,185.37Zm0-15.58a26.11,26.11,0,0,0,10.58-2.13,29.56,29.56,0,0,0,9-6.28q8.36-8.17,8.36-20.8a29.11,29.11,0,0,0-8.36-20.85,26.58,26.58,0,0,0-20-8.42q-12.14,0-20,8.42-8,8.1-8,20.85,0,14.32,10.43,22.8A27.65,27.65,0,0,0,579.28,169.79Z" />
        <path class="cls-1" d="M707.11,95.29v90.08h-16.4l-38.94-59.05v59.05H635.06V95.29h16.33l38.51,59.49V95.29Z" />
        <path class="cls-1"
            d="M769.74,95.29l.44,1.26-8.8,22.67-12.18,31h24.31l-5.85-14.63,8.8-22.68,28.08,72.49H786.45l-6.66-18.47H742.91l-7.53,18.47H717.79l34.74-90.08Z" />
        <path class="cls-1" d="M831.55,95.29V169h33.23v16.4H814.84V95.29Z" />
        <path class="cls-1"
            d="M902,185.37q-18.09,0-27.52-18.78l14-8.36q6.16,11.57,13.95,11.56a11.3,11.3,0,0,0,7.16-2.39,7.57,7.57,0,0,0,2.76-5.59,11,11,0,0,0-1.94-6,46.3,46.3,0,0,0-3.65-3.62q-2.38-2.16-6-5.18-6.84-5.72-11.33-10.08a50.18,50.18,0,0,1-6.57-7.44q-4.39-6.28-4.4-12.32a20.69,20.69,0,0,1,6.79-15.51A24,24,0,0,1,902,95.29a24.93,24.93,0,0,1,12.37,3.2,29.61,29.61,0,0,1,6.1,4.15,75.87,75.87,0,0,1,6.66,6.6L914.72,120q-6.22-8.73-12.75-8.73-3.65,0-5.15,1.57a4.87,4.87,0,0,0-2,4,7.68,7.68,0,0,0,1.19,3.89c.79.84,2.19,2.15,4.18,3.93s4.59,4.07,7.82,6.88q5.65,4.71,8.6,7.47c1.3,1.17,2.27,2,2.89,2.51q8.81,8.49,8.8,19.48,0,10.8-7.23,17.59T902,185.37Z" />
    </g>
</svg>